<svg width="40" height="36" viewBox="0 0 40 36" fill="none" xmlns="http://www.w3.org/2000/svg">
<g filter="url(#filter0_dd_181_24719)">
<circle cx="20" cy="12" r="12" fill="#0A3364"/>
</g>
<path d="M20.0007 12.6673C21.4734 12.6673 22.6673 11.4734 22.6673 10.0007C22.6673 8.52789 21.4734 7.33398 20.0007 7.33398C18.5279 7.33398 17.334 8.52789 17.334 10.0007C17.334 11.4734 18.5279 12.6673 20.0007 12.6673Z" stroke="#F3F3FA" stroke-linecap="round" stroke-linejoin="round"/>
<path d="M15.0547 17.3333C15.8459 15.3788 17.7621 14 20.0003 14C22.2386 14 24.1548 15.3788 24.946 17.3333H15.0547Z" stroke="#F3F3FA" stroke-linecap="round" stroke-linejoin="round"/>
<path opacity="0.5" d="M19 10.8327C19 10.8327 19.4039 11.166 20 11.166C20.5961 11.166 21 10.8327 21 10.8327" stroke="#F3F3FA" stroke-linecap="round" stroke-linejoin="round"/>
<defs>
<filter id="filter0_dd_181_24719" x="0" y="-4" width="40" height="40" filterUnits="userSpaceOnUse" color-interpolation-filters="sRGB">
<feFlood flood-opacity="0" result="BackgroundImageFix"/>
<feColorMatrix in="SourceAlpha" type="matrix" values="0 0 0 0 0 0 0 0 0 0 0 0 0 0 0 0 0 0 127 0" result="hardAlpha"/>
<feOffset dy="4"/>
<feGaussianBlur stdDeviation="4"/>
<feColorMatrix type="matrix" values="0 0 0 0 0.376471 0 0 0 0 0.380392 0 0 0 0 0.439216 0 0 0 0.16 0"/>
<feBlend mode="normal" in2="BackgroundImageFix" result="effect1_dropShadow_181_24719"/>
<feColorMatrix in="SourceAlpha" type="matrix" values="0 0 0 0 0 0 0 0 0 0 0 0 0 0 0 0 0 0 127 0" result="hardAlpha"/>
<feOffset/>
<feGaussianBlur stdDeviation="1"/>
<feColorMatrix type="matrix" values="0 0 0 0 0.156863 0 0 0 0 0.160784 0 0 0 0 0.239216 0 0 0 0.04 0"/>
<feBlend mode="normal" in2="effect1_dropShadow_181_24719" result="effect2_dropShadow_181_24719"/>
<feBlend mode="normal" in="SourceGraphic" in2="effect2_dropShadow_181_24719" result="shape"/>
</filter>
</defs>
</svg>
